<svg width="14" height="11" viewBox="0 0 14 11" fill="none" xmlns="http://www.w3.org/2000/svg">
<path d="M5.84635 10.0942C5.71509 10.0945 5.58506 10.0683 5.46374 10.0171C5.34241 9.96586 5.23218 9.89069 5.13935 9.79585L0.897355 5.46048C0.801782 5.3663 0.725523 5.25361 0.67303 5.12898C0.620536 5.00436 0.592859 4.87031 0.591612 4.73464C0.590365 4.59897 0.615574 4.46441 0.665768 4.3388C0.715962 4.2132 0.790136 4.09906 0.883961 4.00306C0.977787 3.90705 1.08938 3.8311 1.21224 3.77964C1.3351 3.72817 1.46676 3.70223 1.59954 3.70331C1.73232 3.70439 1.86356 3.73248 1.9856 3.78594C2.10764 3.8394 2.21804 3.91716 2.31035 4.01468L5.84535 7.62663L12.2104 1.12512C12.3979 0.933391 12.6522 0.825627 12.9175 0.825531C13.1828 0.825435 13.4372 0.933016 13.6249 1.12461C13.8125 1.3162 13.918 1.5761 13.9181 1.84715C13.9182 2.11819 13.8129 2.37817 13.6254 2.5699L6.55335 9.79585C6.46053 9.89069 6.3503 9.96586 6.22897 10.0171C6.10765 10.0683 5.97762 10.0945 5.84635 10.0942Z" fill="#2FAB73"/>
</svg>
